<?xml version="1.0" encoding="utf-8"?>
<!-- Generator: Adobe Illustrator 21.0.2, SVG Export Plug-In . SVG Version: 6.00 Build 0)  -->
<svg version="1.1" id="Layer_1" xmlns="http://www.w3.org/2000/svg" xmlns:xlink="http://www.w3.org/1999/xlink" x="0px" y="0px"
	 viewBox="0 0 285 233" style="enable-background:new 0 0 285 233;" xml:space="preserve">
<g>
	<defs>
		<rect id="SVGID_1_" x="-487" y="-496" width="792" height="1224"/>
	</defs>
	<clipPath id="SVGID_2_">
		<use xlink:href="#SVGID_1_"  style="overflow:visible;"/>
	</clipPath>
	<g style="opacity:0.53;clip-path:url(#SVGID_2_);">
		<g>
			<defs>
				<rect id="SVGID_3_" x="9.5" y="7.8" width="337.7" height="287.1"/>
			</defs>
			<clipPath id="SVGID_4_">
				<use xlink:href="#SVGID_3_"  style="overflow:visible;"/>
			</clipPath>
			<path style="clip-path:url(#SVGID_4_);fill:#5A5669;" d="M127.3,227.9l-0.1-14.1l12.6,1.5l3.4-3.4l-31.3-31.3L96,196.6
				L127.3,227.9z M123.1,201c0.8-0.8,2.2-0.8,3,0c0.8,0.8,0.8,2.2,0,3c-0.8,0.8-2.2,0.8-3,0C122.2,203.2,122.2,201.8,123.1,201"/>
			<polygon style="clip-path:url(#SVGID_4_);fill:#5A5669;" points="115.6,270.9 128.4,267.8 131.5,255 84.6,208.1 68.6,224 			"/>
			<polygon style="clip-path:url(#SVGID_4_);fill:#5A5669;" points="68.8,224.2 84.7,240.1 117.6,207.2 101.7,191.2 			"/>
			<path style="clip-path:url(#SVGID_4_);fill:#5A5669;" d="M86.5,7.8l0.1,14.1l-12.6-1.5l-3.4,3.4L111.9,65l15.9-15.9L86.5,7.8z
				 M90.7,34.7c-0.8,0.8-2.2,0.8-3,0c-0.8-0.8-0.8-2.2,0-3c0.8-0.8,2.2-0.8,3,0C91.6,32.5,91.6,33.9,90.7,34.7"/>
			<polygon style="clip-path:url(#SVGID_4_);fill:#5A5669;" points="115.6,123.3 128.4,120.1 131.5,107.3 84.6,60.4 68.6,76.3 			
				"/>
			<polygon style="clip-path:url(#SVGID_4_);fill:#5A5669;" points="68.8,76.5 84.7,92.4 117.6,59.5 101.7,43.5 			"/>
			<path style="clip-path:url(#SVGID_4_);fill:#5A5669;" d="M25.4,95.9l0.1,14.1l-12.6-1.5l-3.4,3.4l71.3,71.3l15.9-15.9L25.4,95.9z
				 M29.6,122.9c-0.8,0.8-2.2,0.8-3,0c-0.8-0.8-0.8-2.2,0-3c0.8-0.8,2.2-0.8,3,0C30.5,120.7,30.5,122,29.6,122.9"/>
			<polygon style="clip-path:url(#SVGID_4_);fill:#5A5669;" points="41.3,205.6 44.4,218.4 57.2,221.5 104.1,174.6 88.2,158.7 			
				"/>
			<path style="clip-path:url(#SVGID_4_);fill:#5A5669;" d="M256.5,178.7l15.9-15.9l-71.3-71.3l-3.4,3.4l1.5,12.6l-14.1-0.1
				L256.5,178.7z M209.2,111.6c-0.8-0.8-0.8-2.2,0-3c0.8-0.8,2.2-0.8,3,0c0.8,0.8,0.8,2.2,0,3C211.3,112.5,210,112.5,209.2,111.6"/>
			<polygon style="clip-path:url(#SVGID_4_);fill:#5A5669;" points="248,170.2 263.9,186.1 310.8,139.2 307.7,126.4 294.9,123.3 			
				"/>
			
				<rect x="152.7" y="59.3" transform="matrix(0.7071 -0.7071 0.7071 0.7071 -2.1736 137.3589)" style="clip-path:url(#SVGID_4_);fill:#5A5669;" width="24" height="24"/>
			
				<rect x="159.5" y="150.3" transform="matrix(0.7071 -0.7071 0.7071 0.7071 -64.5458 168.7913)" style="clip-path:url(#SVGID_4_);fill:#5A5669;" width="24" height="24"/>
			
				<rect x="135.9" y="126.8" transform="matrix(0.7071 -0.7071 0.7071 0.7071 -54.8089 145.2909)" style="clip-path:url(#SVGID_4_);fill:#5A5669;" width="24" height="24"/>
			
				<line style="clip-path:url(#SVGID_4_);fill:none;stroke:#5A5669;stroke-miterlimit:10;" x1="137.6" y1="85.3" x2="346.8" y2="294.5"/>
			
				<line style="clip-path:url(#SVGID_4_);fill:none;stroke:#5A5669;stroke-miterlimit:10;" x1="50.8" y1="85.3" x2="260" y2="294.5"/>
		</g>
	</g>
</g>
</svg>
