<?xml version="1.0" encoding="utf-8"?>
<!-- Generator: Adobe Illustrator 21.0.2, SVG Export Plug-In . SVG Version: 6.00 Build 0)  -->
<svg version="1.1" id="Layer_1" xmlns="http://www.w3.org/2000/svg" xmlns:xlink="http://www.w3.org/1999/xlink" x="0px" y="0px"
	 viewBox="0 0 370 83" style="enable-background:new 0 0 370 83;" xml:space="preserve">
<g>
	<defs>
		<rect id="SVGID_1_" x="-236" y="-282.3" width="841.9" height="595.3"/>
	</defs>
	<clipPath id="SVGID_2_">
		<use xlink:href="#SVGID_1_"  style="overflow:visible;"/>
	</clipPath>
	<path style="clip-path:url(#SVGID_2_);fill:#FFFFFF;" d="M26.9,52.6c1.9,1.1,5.4,2.3,8.4,2.3c3.6,0,5.2-1.5,5.2-3.6
		c0-2.2-1.3-3.3-5.4-4.8c-6.4-2.2-9-5.7-9-9.5c0-5.8,4.8-10.2,12.3-10.2c3.6,0,6.8,0.9,8.6,1.9l-1.6,5.8c-1.4-0.8-4-1.9-6.9-1.9
		c-2.9,0-4.6,1.4-4.6,3.4c0,2.1,1.5,3.1,5.7,4.6c5.9,2.1,8.6,5.2,8.7,10c0,5.9-4.6,10.2-13.3,10.2c-4,0-7.5-0.9-9.9-2.3L26.9,52.6z"
		/>
	<path style="clip-path:url(#SVGID_2_);fill:#FFFFFF;" d="M60.1,46.2c0.2,5.9,4.8,8.4,10,8.4c3.8,0,6.6-0.5,9-1.5l1.2,5.7
		c-2.8,1.1-6.7,2-11.4,2c-10.6,0-16.8-6.5-16.8-16.5c0-9,5.5-17.5,15.9-17.5c10.6,0,14.1,8.7,14.1,15.9c0,1.5-0.1,2.7-0.3,3.5H60.1z
		 M74.4,40.4c0.1-3-1.3-8-6.8-8c-5.1,0-7.2,4.6-7.6,8H74.4z"/>
	<path style="clip-path:url(#SVGID_2_);fill:#FFFFFF;" d="M87.9,37.2c0-3.8-0.1-6.9-0.3-9.7h7.2l0.4,4.9h0.2c1.4-2.5,5-5.6,10.4-5.6
		c5.7,0,11.6,3.7,11.6,14v19.3h-8.2V41.7c0-4.7-1.7-8.2-6.2-8.2c-3.3,0-5.6,2.3-6.4,4.8c-0.3,0.7-0.3,1.7-0.3,2.7v19.1h-8.3V37.2z"
		/>
	<path style="clip-path:url(#SVGID_2_);fill:#FFFFFF;" d="M155.2,12.6V51c0,3.3,0.1,7,0.3,9.2h-7.4l-0.3-5.2h-0.1
		c-1.9,3.6-5.9,5.9-10.6,5.9c-7.8,0-13.9-6.6-13.9-16.7c-0.1-10.9,6.8-17.4,14.6-17.4c4.5,0,7.7,1.9,9.2,4.3h0.1V12.6H155.2z
		 M147,41.1c0-0.7-0.1-1.5-0.2-2.1c-0.7-3.2-3.3-5.8-7.1-5.8c-5.3,0-8.2,4.7-8.2,10.8c0,6,2.9,10.3,8.2,10.3c3.3,0,6.3-2.3,7.1-5.8
		c0.2-0.7,0.3-1.5,0.3-2.4V41.1z"/>
	<path style="clip-path:url(#SVGID_2_);fill:#F7941D;" d="M168,27.5l3.4,14.8c0.7,3.5,1.5,7,2.1,10.6h0.1c0.7-3.5,1.7-7.2,2.7-10.5
		l4.2-14.9h6.7l4.1,14.5c1,3.8,1.9,7.4,2.6,10.9h0.1c0.5-3.5,1.3-7.1,2.1-10.9l3.6-14.5h8.1l-10.2,32.6H190l-3.9-13.3
		c-1-3.4-1.7-6.5-2.5-10.4h-0.1c-0.7,4-1.5,7.2-2.5,10.4l-4.2,13.3h-7.7l-9.6-32.6H168z"/>
	<path style="clip-path:url(#SVGID_2_);fill:#F7941D;" d="M222.8,16.1c0,3.5-2.5,6.2-6.6,6.2c-3.8,0-6.4-2.7-6.4-6.2
		c0-3.6,2.6-6.3,6.5-6.3C220.3,9.8,222.7,12.5,222.8,16.1"/>
	<rect x="212.2" y="27.5" style="clip-path:url(#SVGID_2_);fill:#F7941D;" width="8.3" height="32.6"/>
	<path style="clip-path:url(#SVGID_2_);fill:#F7941D;" d="M237.5,18.2v9.3h7.8v6.2h-7.8v14.4c0,4,1.1,6,4.2,6c1.4,0,2.5-0.2,3.2-0.4
		l0.1,6.3c-1.2,0.5-3.3,0.8-6,0.8c-3,0-5.6-1-7.1-2.7c-1.7-1.9-2.5-4.8-2.5-9.1V33.7h-4.7v-6.2h4.7v-7.4L237.5,18.2z"/>
	<path style="clip-path:url(#SVGID_2_);fill:#F7941D;" d="M250.3,12.6h8.3V32h0.1c1-1.5,2.3-2.8,4.1-3.8c1.6-0.9,3.5-1.5,5.6-1.5
		c5.6,0,11.4,3.7,11.4,14.1v19.2h-8.2V41.9c0-4.8-1.7-8.3-6.3-8.3c-3.2,0-5.5,2.1-6.4,4.6c-0.3,0.7-0.3,1.5-0.3,2.5v19.5h-8.3V12.6z
		"/>
	<path style="clip-path:url(#SVGID_2_);fill:#FFFFFF;" d="M316.4,50.4c0,3.9,0.1,7.1,0.3,9.8h-7.2l-0.4-5h-0.1
		c-1.4,2.3-4.6,5.7-10.4,5.7c-6,0-11.4-3.5-11.4-14.2V27.5h8.2v17.7c0,5.4,1.7,8.9,6.1,8.9c3.3,0,5.4-2.3,6.3-4.4
		c0.3-0.7,0.5-1.6,0.5-2.5V27.5h8.2V50.4z"/>
	<path style="clip-path:url(#SVGID_2_);fill:#FFFFFF;" d="M323.7,52.6c1.9,1.1,5.4,2.3,8.4,2.3c3.6,0,5.2-1.5,5.2-3.6
		c0-2.2-1.3-3.3-5.4-4.8c-6.4-2.2-9-5.7-9-9.5c0-5.8,4.8-10.2,12.3-10.2c3.6,0,6.8,0.9,8.6,1.9l-1.6,5.8c-1.4-0.8-4-1.9-6.9-1.9
		c-2.9,0-4.6,1.4-4.6,3.4c0,2.1,1.5,3.1,5.7,4.6c5.9,2.1,8.6,5.2,8.7,10c0,5.9-4.6,10.2-13.3,10.2c-4,0-7.5-0.9-9.9-2.3L323.7,52.6z
		"/>
</g>
<g>
	<defs>
		<rect id="SVGID_3_" x="-236" y="-282.3" width="841.9" height="595.3"/>
	</defs>
	<clipPath id="SVGID_4_">
		<use xlink:href="#SVGID_3_"  style="overflow:visible;"/>
	</clipPath>
</g>
</svg>
