<?xml version="1.0" encoding="utf-8"?>
<!-- Generator: Adobe Illustrator 21.0.2, SVG Export Plug-In . SVG Version: 6.00 Build 0)  -->
<svg version="1.1" id="Layer_1" xmlns="http://www.w3.org/2000/svg" xmlns:xlink="http://www.w3.org/1999/xlink" x="0px" y="0px"
	 viewBox="0 0 249 244" style="enable-background:new 0 0 249 244;" xml:space="preserve">
<g>
	<path style="fill:#6B6776;" d="M124.5,18.8l0.1,14.1l-12.6-1.5l-3.4,3.4l31.3,31.3l15.9-15.9L124.5,18.8z M128.7,45.7
		c-0.8,0.8-2.2,0.8-3,0c-0.8-0.8-0.8-2.2,0-3c0.8-0.8,2.2-0.8,3,0C129.6,43.6,129.6,44.9,128.7,45.7"/>
	<polygon style="fill:#6B6776;" points="136.2,-24.2 123.4,-21.1 120.3,-8.3 167.2,38.7 183.2,22.7 	"/>
	<polygon style="fill:#6B6776;" points="183,22.6 167.1,6.7 134.1,39.6 150.1,55.5 	"/>
	<path style="fill:#6B6776;" d="M165.3,239l-0.1-14.1l12.6,1.5l3.4-3.4l-41.3-41.3L124,197.7L165.3,239z M161.1,212
		c0.8-0.8,2.2-0.8,3,0c0.8,0.8,0.8,2.2,0,3c-0.8,0.8-2.2,0.8-3,0C160.2,214.2,160.2,212.9,161.1,212"/>
	<polygon style="fill:#6B6776;" points="136.2,123.5 123.4,126.6 120.3,139.4 167.2,186.4 183.2,170.4 	"/>
	<polygon style="fill:#6B6776;" points="183,170.3 167.1,154.3 134.1,187.3 150.1,203.2 	"/>
	<path style="fill:#6B6776;" d="M226.4,150.8l-0.1-14.1l12.6,1.5l3.4-3.4L171,63.6l-15.9,15.9L226.4,150.8z M222.2,123.9
		c0.8-0.8,2.2-0.8,3,0c0.8,0.8,0.8,2.2,0,3c-0.8,0.8-2.2,0.8-3,0C221.3,126,221.3,124.7,222.2,123.9"/>
	<polygon style="fill:#6B6776;" points="210.5,41.1 207.4,28.3 194.6,25.2 147.6,72.1 163.6,88.1 	"/>
	<path style="fill:#6B6776;" d="M-27.6,45.1l0.1,14.1l-12.6-1.5l-3.4,3.4l71.3,71.3l15.9-15.9L-27.6,45.1z M-23.4,72.1
		c-0.8,0.8-2.2,0.8-3,0c-0.8-0.8-0.8-2.2,0-3c0.8-0.8,2.2-0.8,3,0C-22.6,69.9-22.6,71.2-23.4,72.1"/>
	<polygon style="fill:#6B6776;" points="-11.8,154.8 -8.6,167.6 4.2,170.7 51.1,123.8 35.2,107.9 	"/>
	
		<rect x="73.2" y="-12" transform="matrix(0.7071 -0.7071 0.7071 0.7071 24.9485 60.2305)" style="fill:#6B6776;" width="24" height="24"/>
	
		<rect x="75" y="163.4" transform="matrix(0.7071 -0.7071 0.7071 0.7071 -98.5561 112.9542)" style="fill:#6B6776;" width="24" height="24"/>
	
		<rect x="49.7" y="138" transform="matrix(0.7071 -0.7071 0.7071 0.7071 -88.0454 87.5792)" style="fill:#6B6776;" width="24" height="24"/>
	
		<rect x="91.8" y="95.9" transform="matrix(0.7071 -0.7071 0.7071 0.7071 -45.9204 105.0279)" style="fill:#6B6776;" width="24" height="24"/>
	<line style="fill:none;stroke:#6B6776;stroke-miterlimit:10;" x1="114.2" y1="161.5" x2="-95" y2="-47.7"/>
	<line style="fill:none;stroke:#6B6776;stroke-miterlimit:10;" x1="201" y1="161.5" x2="-8.2" y2="-47.7"/>
	<rect style="fill:none;" width="792" height="1224"/>
</g>
</svg>
